<svg width="32" height="32" viewBox="0 0 32 32" fill="none" xmlns="http://www.w3.org/2000/svg">
  <defs>
    <linearGradient id="diamondBody" x1="0" y1="0" x2="1" y2="1">
      <stop offset="0%" stop-color="#93C5FD"/>
      <stop offset="25%" stop-color="#60A5FA"/>
      <stop offset="55%" stop-color="#3B82F6"/>
      <stop offset="80%" stop-color="#2563EB"/>
      <stop offset="100%" stop-color="#1D4ED8"/>
    </linearGradient>
    <linearGradient id="diamondShine" x1="0" y1="0" x2="0.7" y2="1">
      <stop offset="0%" stop-color="#FFFFFF" stop-opacity="0"/>
      <stop offset="20%" stop-color="#FFFFFF" stop-opacity="0.7"/>
      <stop offset="35%" stop-color="#FFFFFF" stop-opacity="0.1"/>
      <stop offset="55%" stop-color="#FFFFFF" stop-opacity="0.4"/>
      <stop offset="80%" stop-color="#FFFFFF" stop-opacity="0"/>
      <stop offset="100%" stop-color="#BFDBFE" stop-opacity="0.2"/>
    </linearGradient>
    <linearGradient id="diamondEdge" x1="0" y1="0" x2="1" y2="1">
      <stop offset="0%" stop-color="#BFDBFE"/>
      <stop offset="50%" stop-color="#3B82F6"/>
      <stop offset="100%" stop-color="#1E40AF"/>
    </linearGradient>
    <filter id="diamondGlowFilter">
      <feDropShadow dx="0" dy="0" stdDeviation="4" flood-color="#3B82F6" flood-opacity="0.7"/>
      <feDropShadow dx="0" dy="0" stdDeviation="8" flood-color="#60A5FA" flood-opacity="0.3"/>
    </filter>
  </defs>
  <g filter="url(#diamondGlowFilter)">
    <path d="M16 2L4 12L16 30L28 12L16 2Z" fill="url(#diamondBody)" stroke="url(#diamondEdge)" stroke-width="0.8"/>
    <path d="M16 2L4 12L16 30L28 12L16 2Z" fill="url(#diamondShine)"/>
    <path d="M16 6L9 13L16 26L23 13L16 6Z" fill="white" fill-opacity="0.1"/>
    <path d="M16 2L10 12L16 14L22 12L16 2Z" fill="white" fill-opacity="0.15"/>
    <circle cx="12" cy="11" r="1.5" fill="white" fill-opacity="0.4"/>
    <circle cx="20" cy="15" r="1" fill="white" fill-opacity="0.25"/>
  </g>
</svg>