<svg width="32" height="32" viewBox="0 0 32 32" fill="none" xmlns="http://www.w3.org/2000/svg">
  <defs>
    <radialGradient id="goldBg" cx="50%" cy="50%" r="50%">
      <stop offset="0%" stop-color="#FEF3C7" stop-opacity="0.3"/>
      <stop offset="100%" stop-color="#F59E0B" stop-opacity="0"/>
    </radialGradient>
    <linearGradient id="goldBody" x1="0" y1="0" x2="1" y2="1">
      <stop offset="0%" stop-color="#FCD34D"/>
      <stop offset="35%" stop-color="#FBBF24"/>
      <stop offset="70%" stop-color="#F59E0B"/>
      <stop offset="100%" stop-color="#D97706"/>
    </linearGradient>
    <linearGradient id="goldShine" x1="0" y1="0" x2="0.6" y2="1">
      <stop offset="0%" stop-color="#FEF3C7" stop-opacity="0.8"/>
      <stop offset="40%" stop-color="#FFFFFF" stop-opacity="0.4"/>
      <stop offset="100%" stop-color="#F59E0B" stop-opacity="0"/>
    </linearGradient>
    <linearGradient id="goldEdge" x1="0" y1="0" x2="1" y2="1">
      <stop offset="0%" stop-color="#FDE68A"/>
      <stop offset="50%" stop-color="#D97706"/>
      <stop offset="100%" stop-color="#B45309"/>
    </linearGradient>
    <filter id="goldGlowFilter">
      <feDropShadow dx="0" dy="1" stdDeviation="3" flood-color="#F59E0B" flood-opacity="0.5"/>
    </filter>
  </defs>
  <circle cx="16" cy="16" r="14" fill="url(#goldBg)"/>
  <g filter="url(#goldGlowFilter)">
    <path d="M16 3L19 11.5H28L21 17L23.5 26L16 21L8.5 26L11 17L4 11.5H13L16 3Z" fill="url(#goldBody)" stroke="url(#goldEdge)" stroke-width="0.5"/>
    <path d="M16 3L19 11.5H28L21 17L23.5 26L16 21L8.5 26L11 17L4 11.5H13L16 3Z" fill="url(#goldShine)"/>
  </g>
</svg>