<svg xmlns="http://www.w3.org/2000/svg" viewBox="0 0 100 100" fill="none">
  <defs>
    <linearGradient id="diamondGrad" x1="0" y1="0" x2="0" y2="1">
      <stop offset="0%" stop-color="#60a5fa"/>
      <stop offset="30%" stop-color="#3b82f6"/>
      <stop offset="70%" stop-color="#2563eb"/>
      <stop offset="100%" stop-color="#1d4ed8"/>
    </linearGradient>
    <linearGradient id="diamondShine1" x1="0" y1="0" x2="1" y2="1">
      <stop offset="0%" stop-color="#bfdbfe" stop-opacity="0.8"/>
      <stop offset="30%" stop-color="#93c5fd" stop-opacity="0.2"/>
      <stop offset="60%" stop-color="#60a5fa" stop-opacity="0.1"/>
      <stop offset="100%" stop-color="#3b82f6" stop-opacity="0.5"/>
    </linearGradient>
    <linearGradient id="diamondShine2" x1="0" y1="1" x2="1" y2="0">
      <stop offset="0%" stop-color="#fff" stop-opacity="0.15"/>
      <stop offset="50%" stop-color="#fff" stop-opacity="0.05"/>
      <stop offset="100%" stop-color="#fff" stop-opacity="0.2"/>
    </linearGradient>
    <filter id="diamondGlow" x="-30%" y="-30%" width="160%" height="160%">
      <feDropShadow dx="0" dy="0" stdDeviation="5" flood-color="#3b82f6" flood-opacity="0.6"/>
      <feDropShadow dx="0" dy="0" stdDeviation="10" flood-color="#60a5fa" flood-opacity="0.3"/>
    </filter>
  </defs>
  <path d="M50 5 L90 40 L50 95 L10 40 Z" fill="url(#diamondGrad)" filter="url(#diamondGlow)"/>
  <path d="M50 5 L90 40 L50 95 L10 40 Z" fill="url(#diamondShine1)"/>
  <path d="M50 5 L90 40 L50 95 L10 40 Z" fill="url(#diamondShine2)"/>
  <path d="M50 5 L50 95" stroke="#bfdbfe" stroke-width="1.5" stroke-opacity="0.4"/>
  <path d="M10 40 L90 40" stroke="#bfdbfe" stroke-width="1.5" stroke-opacity="0.4"/>
  <path d="M50 18 L30 40 L50 80 L70 40 Z" fill="none" stroke="#bfdbfe" stroke-width="1" stroke-opacity="0.25"/>
  <path d="M50 30 L18 40 L50 85" stroke="#bfdbfe" stroke-width="0.8" stroke-opacity="0.2"/>
  <path d="M50 30 L82 40 L50 85" stroke="#bfdbfe" stroke-width="0.8" stroke-opacity="0.2"/>
  <circle cx="42" cy="35" r="1.5" fill="#bfdbfe" opacity="0.6"/>
  <circle cx="58" cy="35" r="1" fill="#bfdbfe" opacity="0.4"/>
  <circle cx="50" cy="20" r="1.5" fill="#bfdbfe" opacity="0.5"/>
</svg>