<svg xmlns="http://www.w3.org/2000/svg" viewBox="0 0 100 100" fill="none">
  <defs>
    <linearGradient id="shieldGrad" x1="0" y1="0" x2="0" y2="1">
      <stop offset="0%" stop-color="#cbd5e1"/>
      <stop offset="40%" stop-color="#94a3b8"/>
      <stop offset="100%" stop-color="#64748b"/>
    </linearGradient>
    <linearGradient id="shieldShine" x1="0" y1="0" x2="1" y2="1">
      <stop offset="0%" stop-color="#f8fafc" stop-opacity="0.7"/>
      <stop offset="50%" stop-color="#cbd5e1" stop-opacity="0.1"/>
      <stop offset="100%" stop-color="#94a3b8" stop-opacity="0.5"/>
    </linearGradient>
    <filter id="shieldGlow" x="-20%" y="-20%" width="140%" height="140%">
      <feDropShadow dx="0" dy="1" stdDeviation="3" flood-color="#94a3b8" flood-opacity="0.5"/>
    </filter>
  </defs>
  <path d="M50 10 L15 25 L15 55 C15 75 30 85 50 92 C70 85 85 75 85 55 L85 25 Z" fill="url(#shieldGrad)" filter="url(#shieldGlow)"/>
  <path d="M50 10 L15 25 L15 55 C15 75 30 85 50 92 C70 85 85 75 85 55 L85 25 Z" fill="url(#shieldShine)"/>
  <path d="M50 22 L50 80" stroke="#f8fafc" stroke-width="2" stroke-opacity="0.3"/>
  <path d="M35 45 L65 45" stroke="#f8fafc" stroke-width="2" stroke-opacity="0.3"/>
  <path d="M28 58 L72 58" stroke="#f8fafc" stroke-width="1.5" stroke-opacity="0.2"/>
  <circle cx="50" cy="50" r="14" fill="none" stroke="#f8fafc" stroke-width="1.5" stroke-opacity="0.25"/>
  <path d="M50 38 L50 62 M38 50 L62 50" stroke="#f8fafc" stroke-width="1.5" stroke-opacity="0.2"/>
</svg>